<?xml version="1.0" encoding="utf-8"?>
<!-- Generator: Adobe Illustrator 19.0.0, SVG Export Plug-In . SVG Version: 6.00 Build 0)  -->
<svg version="1.1" id="Capa_1" xmlns="http://www.w3.org/2000/svg" xmlns:xlink="http://www.w3.org/1999/xlink" x="0px" y="0px"
	 viewBox="-458 263.6 43 34.4" style="enable-background:new -458 263.6 43 34.4;" xml:space="preserve">
<style type="text/css">
	.st0{fill:#0000CD;}
</style>
<g>
	<path class="st0" d="M-430.5,264.9h-12c-1.8,0-3.3,1.5-3.3,3.3v25.2c0,1.8,1.5,3.3,3.3,3.3h11.9c1.8,0,3.3-1.5,3.3-3.3v-25.2
		C-427.2,266.4-428.7,264.9-430.5,264.9z M-439.8,267.6h6.6c0.4,0,0.7,0.3,0.7,0.7c0,0.4-0.3,0.7-0.7,0.7h-6.6
		c-0.4,0-0.7-0.3-0.7-0.7C-440.5,267.9-440.2,267.6-439.8,267.6z M-436.5,294.7c-0.7,0-1.3-0.6-1.3-1.3c0-0.7,0.6-1.3,1.3-1.3
		s1.3,0.6,1.3,1.3C-435.2,294.1-435.8,294.7-436.5,294.7z M-428.6,290.1h-15.8v-18.6h15.9v18.6H-428.6z"/>
</g>
</svg>
