<?xml version="1.0" encoding="utf-8"?>
<!-- Generator: Adobe Illustrator 19.0.0, SVG Export Plug-In . SVG Version: 6.00 Build 0)  -->
<svg version="1.1" id="icon_x5F_ap" xmlns="http://www.w3.org/2000/svg" xmlns:xlink="http://www.w3.org/1999/xlink" x="0px"
	 y="0px" viewBox="-457 259 44 44" style="enable-background:new -457 259 44 44;" xml:space="preserve">
<style type="text/css">
	.st0{fill:#169381;}
	.st1{fill:#33CC66;}
</style>
<path class="st0" d="M-447.3,265.8c3.1-0.3,5.7,2,5.7,5.3c0,3.3-2.6,5.9-5.7,6c-3,0.1-5.4-2.3-5.4-5.3
	C-452.7,268.7-450.4,266.1-447.3,265.8z"/>
<path class="st0" d="M-424.7,288.5c4,0.1,7.3,3.1,7.3,6.8c0,3.6-3.3,6.3-7.3,5.9c-3.8-0.3-6.8-3.4-6.8-6.7S-428.5,288.4-424.7,288.5
	z"/>
<path class="st1" d="M-425.3,262.3c0,0,9.2-1.1,10.2-1.2c0.8-0.1,0.7,0.6,0.7,0.6l0.2,9.2c0,0,0,1.1-0.7,0.5c-0.7-0.6-2.4-2-2.4-2
	s-0.4,0.4-1,1c-3.6,3.3-33,30.8-33,30.8s-0.3,0.4-0.7,0c-0.4-0.4-3.5-4-3.7-4.3c-0.3-0.3-0.1-0.5-0.1-0.5s28-27.6,31.2-30.8
	c0.6-0.6,1-0.9,1-0.9s-1.3-1-2.1-1.7C-426.5,262.4-425.3,262.3-425.3,262.3z"/>
</svg>
