<?xml version="1.0" encoding="utf-8"?>
<!-- Generator: Adobe Illustrator 19.2.1, SVG Export Plug-In . SVG Version: 6.00 Build 0)  -->
<svg version="1.1" id="Layer_1" xmlns="http://www.w3.org/2000/svg" xmlns:xlink="http://www.w3.org/1999/xlink" x="0px" y="0px"
	 viewBox="0 0 180 44" style="enable-background:new 0 0 180 44;" xml:space="preserve">
<style type="text/css">
	.st0{fill:#0000CD;}
	.st1{display:none;fill:#0000CD;}
</style>
<g id="XMLID_2_">
	<path id="XMLID_3_" class="st0" d="M6.2,10.9h9.5c0.9,0,1.7,0.1,2.4,0.3c0.8,0.2,1.4,0.5,2,1c0.6,0.4,1,1,1.4,1.7s0.5,1.5,0.5,2.4
		c0,1.3-0.3,2.5-1,3.4c-0.7,1-1.7,1.6-3,1.9v0.1c0.7,0.1,1.2,0.3,1.7,0.5c0.4,0.3,0.8,0.6,1.1,1s0.5,0.9,0.6,1.4s0.2,1.1,0.2,1.7
		c0,0.3,0,0.8,0.1,1.3c0,0.5,0.1,1,0.1,1.5c0.1,0.5,0.1,1,0.3,1.5c0.1,0.5,0.3,0.8,0.5,1.1h-2.2c-0.1-0.2-0.2-0.4-0.3-0.7
		C20,30.7,20,30.4,20,30.1s-0.1-0.6-0.1-0.9s0-0.5-0.1-0.8c0-0.7-0.1-1.5-0.2-2.2s-0.3-1.4-0.6-1.9c-0.3-0.6-0.7-1-1.2-1.4
		s-1.3-0.5-2.2-0.5H8.2v9.2h-2C6.2,31.6,6.2,10.9,6.2,10.9z M8.2,20.7h7.4c0.6,0,1.2-0.1,1.7-0.3c0.5-0.2,1-0.4,1.4-0.8
		s0.7-0.8,1-1.3c0.2-0.5,0.4-1.1,0.4-1.7c0-1.3-0.4-2.3-1.1-3s-1.9-1.1-3.4-1.1H8.2V20.7z"/>
	<path id="XMLID_6_" class="st0" d="M40.7,17.2c-0.2-0.8-0.5-1.5-0.9-2.1s-0.9-1.2-1.5-1.6s-1.2-0.7-1.9-1c-0.7-0.2-1.4-0.3-2.2-0.3
		c-1.4,0-2.6,0.3-3.5,0.8c-1,0.5-1.8,1.2-2.4,2.1s-1.1,1.8-1.4,2.9s-0.4,2.2-0.4,3.3s0.1,2.2,0.4,3.3c0.3,1.1,0.8,2.1,1.4,2.9
		c0.6,0.9,1.4,1.6,2.4,2.1s2.2,0.8,3.5,0.8c1,0,1.8-0.2,2.6-0.5c0.8-0.3,1.4-0.8,2-1.4s1-1.3,1.4-2.1c0.4-0.8,0.6-1.7,0.7-2.6h2
		c-0.1,1.3-0.4,2.4-0.9,3.5c-0.5,1-1.1,1.9-1.8,2.6c-0.7,0.7-1.6,1.3-2.6,1.7c-1,0.4-2.1,0.6-3.3,0.6c-1.6,0-3.1-0.3-4.3-0.9
		c-1.2-0.6-2.2-1.4-3.1-2.4c-0.8-1-1.4-2.1-1.8-3.4s-0.6-2.7-0.6-4.1s0.2-2.8,0.6-4.1c0.4-1.3,1-2.4,1.8-3.4s1.8-1.8,3.1-2.4
		c1.3-0.6,2.7-0.9,4.3-0.9c1,0,1.9,0.1,2.9,0.4s1.8,0.7,2.6,1.3s1.4,1.3,1.9,2.1c0.5,0.8,0.8,1.8,1,2.9L40.7,17.2L40.7,17.2
		L40.7,17.2z"/>
	<path id="XMLID_8_" class="st0" d="M46.9,24.8c0,1.1,0.1,2,0.5,2.7c0.3,0.7,0.8,1.3,1.4,1.7s1.3,0.7,2.2,0.9
		c0.8,0.2,1.7,0.3,2.7,0.3c0.5,0,1.1-0.1,1.8-0.2c0.6-0.2,1.2-0.4,1.8-0.7c0.6-0.3,1-0.8,1.4-1.3s0.6-1.2,0.6-1.9
		c0-0.6-0.1-1.1-0.4-1.5s-0.6-0.8-1-1.1c-0.4-0.3-0.9-0.5-1.4-0.7s-1-0.3-1.5-0.4l-4.7-1.3c-0.6-0.2-1.2-0.3-1.8-0.6
		c-0.6-0.2-1.1-0.5-1.5-0.9s-0.8-0.9-1-1.4c-0.3-0.6-0.4-1.2-0.4-2.1c0-0.5,0.1-1.1,0.3-1.8c0.2-0.7,0.6-1.3,1.1-1.9
		s1.3-1.1,2.2-1.5c0.9-0.4,2.1-0.6,3.6-0.6c1,0,2,0.1,2.9,0.4s1.7,0.7,2.4,1.2c0.7,0.5,1.3,1.2,1.7,2c0.4,0.8,0.6,1.7,0.6,2.8h-2
		c0-0.8-0.2-1.5-0.5-2.1s-0.7-1.1-1.2-1.5s-1.1-0.7-1.8-0.9c-0.7-0.2-1.4-0.3-2.1-0.3s-1.3,0.1-2,0.2c-0.6,0.1-1.2,0.4-1.7,0.7
		c-0.5,0.3-0.9,0.7-1.1,1.3c-0.2,0.6-0.4,1.2-0.4,1.9c0,0.5,0.1,0.9,0.2,1.3c0.2,0.4,0.4,0.7,0.7,0.9c0.3,0.3,0.6,0.5,1,0.6
		s0.8,0.3,1.2,0.4l5,1.2c0.7,0.2,1.4,0.4,2.1,0.7c0.6,0.3,1.2,0.6,1.7,1s0.9,0.9,1.2,1.5c0.3,0.6,0.4,1.3,0.4,2.2
		c0,0.2,0,0.5-0.1,0.9c0,0.4-0.2,0.8-0.3,1.2c-0.1,0.4-0.4,0.9-0.8,1.3c-0.3,0.4-0.8,0.8-1.4,1.2c-0.6,0.4-1.3,0.6-2.2,0.9
		c-0.9,0.2-1.9,0.3-3.1,0.3s-2.3-0.1-3.4-0.4s-1.9-0.7-2.7-1.3c-0.7-0.6-1.3-1.3-1.7-2.2s-0.6-2-0.5-3.3h2L46.9,24.8L46.9,24.8z"/>
	<path id="XMLID_10_" class="st1" d="M72,10.9h1.8v2.9H72V10.9z M72,16.6h1.8v15H72V16.6z"/>
	<path id="XMLID_13_" class="st0" d="M77.7,10.9h9.5c0.9,0,1.7,0.1,2.4,0.3c0.8,0.2,1.4,0.5,2,1c0.6,0.4,1,1,1.4,1.7
		c0.3,0.7,0.5,1.5,0.5,2.4c0,1.3-0.3,2.5-1,3.4c-0.7,1-1.7,1.6-3,1.9v0.1c0.7,0.1,1.2,0.3,1.7,0.5c0.4,0.3,0.8,0.6,1.1,1
		s0.5,0.9,0.6,1.4s0.2,1.1,0.2,1.7c0,0.3,0,0.8,0.1,1.3s0.1,1,0.1,1.5c0.1,0.5,0.1,1,0.3,1.5c0.1,0.5,0.3,0.8,0.5,1.1h-2.2
		c-0.1-0.2-0.2-0.4-0.3-0.7c-0.1-0.3-0.1-0.6-0.1-0.9s-0.1-0.6-0.1-0.9s0-0.5-0.1-0.8c0-0.7-0.1-1.5-0.2-2.2s-0.3-1.4-0.6-1.9
		c-0.3-0.6-0.7-1-1.2-1.4s-1.3-0.5-2.2-0.5h-7.5v9.2h-2L77.7,10.9L77.7,10.9z M79.7,20.7h7.4c0.6,0,1.2-0.1,1.7-0.3
		c0.5-0.2,1-0.4,1.4-0.8c0.4-0.3,0.7-0.8,1-1.3c0.2-0.5,0.4-1.1,0.4-1.7c0-1.3-0.4-2.3-1.1-3s-1.9-1.1-3.4-1.1h-7.4V20.7z"/>
	<path id="XMLID_16_" class="st0" d="M97.8,24.6c0,0.7,0.1,1.3,0.3,2c0.2,0.7,0.5,1.3,0.9,1.9s0.9,1,1.5,1.4s1.4,0.6,2.2,0.6
		c1.3,0,2.4-0.3,3.1-1s1.3-1.6,1.6-2.8h1.8c-0.4,1.7-1.1,3-2.1,3.9s-2.5,1.4-4.4,1.4c-1.2,0-2.2-0.2-3.1-0.6s-1.6-1-2.1-1.7
		s-0.9-1.6-1.2-2.5c-0.3-1-0.4-2-0.4-3s0.1-2,0.4-2.9s0.7-1.8,1.2-2.5s1.2-1.3,2.1-1.8s1.9-0.7,3.1-0.7s2.2,0.2,3.1,0.7
		s1.5,1.1,2.1,1.9c0.5,0.8,0.9,1.7,1.1,2.7s0.3,2,0.3,3.1H97.8V24.6z M107.5,23.1c0-0.7-0.1-1.4-0.4-2c-0.2-0.6-0.5-1.2-0.9-1.7
		s-0.9-0.9-1.5-1.2c-0.6-0.3-1.2-0.4-2-0.4s-1.4,0.1-2,0.4s-1.1,0.7-1.5,1.2s-0.7,1.1-1,1.7c-0.2,0.6-0.4,1.3-0.5,2H107.5z"/>
	<path id="XMLID_19_" class="st0" d="M111.8,16.6h1.7v2.8h0.1c0.4-1,1.1-1.9,2.1-2.4c1-0.6,2-0.9,3.3-0.9c1.1,0,2.1,0.2,3,0.6
		c0.8,0.4,1.5,1,2.1,1.7s1,1.6,1.2,2.5c0.3,1,0.4,2,0.4,3s-0.1,2.1-0.4,3c-0.3,1-0.7,1.8-1.2,2.5c-0.6,0.7-1.3,1.3-2.1,1.7
		c-0.8,0.4-1.8,0.6-3,0.6c-0.5,0-1.1-0.1-1.6-0.2s-1-0.3-1.5-0.6c-0.5-0.3-0.9-0.6-1.2-1c-0.4-0.4-0.6-0.9-0.8-1.4h-0.1v8.4H112
		V16.6L111.8,16.6L111.8,16.6z M123.7,24.1c0-0.8-0.1-1.5-0.3-2.3c-0.2-0.8-0.5-1.4-0.9-2s-0.9-1.1-1.5-1.5s-1.4-0.6-2.2-0.6
		c-1,0-1.8,0.2-2.5,0.5s-1.2,0.8-1.6,1.4s-0.7,1.3-0.9,2c-0.2,0.7-0.2,1.6-0.2,2.4s0.1,1.5,0.3,2.3s0.5,1.4,0.9,2s1,1.1,1.6,1.5
		s1.5,0.6,2.5,0.6c0.9,0,1.6-0.2,2.2-0.6s1.1-0.9,1.5-1.5s0.7-1.3,0.9-2C123.6,25.7,123.7,24.9,123.7,24.1z"/>
	<path id="XMLID_22_" class="st0" d="M134.7,16.2c1.1,0,2.2,0.2,3,0.6c0.9,0.4,1.6,1,2.2,1.7s1.1,1.6,1.4,2.5c0.3,1,0.5,2,0.5,3.1
		s-0.2,2.1-0.5,3.1c-0.3,1-0.8,1.8-1.4,2.5c-0.6,0.7-1.3,1.3-2.2,1.7s-1.9,0.6-3,0.6s-2.2-0.2-3-0.6c-0.9-0.4-1.6-1-2.2-1.7
		s-1.1-1.6-1.4-2.5c-0.3-0.9-0.5-2-0.5-3.1s0.2-2.1,0.5-3.1c0.3-1,0.8-1.8,1.4-2.5s1.3-1.3,2.2-1.7
		C132.6,16.4,133.6,16.2,134.7,16.2z M134.7,17.7c-0.9,0-1.6,0.2-2.3,0.6c-0.7,0.4-1.2,0.9-1.6,1.5s-0.8,1.3-1,2s-0.3,1.5-0.3,2.3
		s0.1,1.6,0.3,2.3c0.2,0.7,0.6,1.4,1,2s1,1.1,1.6,1.5s1.4,0.6,2.3,0.6c0.9,0,1.6-0.2,2.3-0.6c0.7-0.4,1.2-0.9,1.6-1.5s0.8-1.3,1-2
		c0.2-0.7,0.3-1.5,0.3-2.3s-0.1-1.6-0.3-2.3c-0.2-0.7-0.6-1.4-1-2s-1-1.1-1.6-1.5S135.6,17.7,134.7,17.7z"/>
	<path id="XMLID_25_" class="st0" d="M144.5,16.6h1.7v3.5h0.1c0.5-1.2,1.2-2.2,2.2-2.8c1-0.7,2.1-1,3.5-0.9v1.9
		c-0.8,0-1.6,0.1-2.3,0.3c-0.7,0.3-1.3,0.6-1.8,1.1s-0.9,1.1-1.1,1.7c-0.3,0.7-0.4,1.4-0.4,2.2v8h-1.8L144.5,16.6L144.5,16.6z"/>
	<path id="XMLID_27_" class="st0" d="M156.6,16.6h3v1.5h-3v10.2c0,0.6,0.1,1.1,0.2,1.4c0.2,0.3,0.6,0.5,1.2,0.6c0.5,0,1,0,1.6-0.1
		v1.5c-0.3,0-0.5,0-0.8,0c-0.3,0-0.5,0-0.8,0c-1.2,0-2.1-0.2-2.6-0.7s-0.7-1.3-0.7-2.6V18.2h-2.6v-1.5h2.6v-4.5h1.8v4.4L156.6,16.6
		L156.6,16.6z"/>
	<path id="XMLID_29_" class="st0" d="M171.2,21c0-0.6-0.1-1-0.3-1.5c-0.2-0.4-0.5-0.8-0.9-1c-0.4-0.3-0.8-0.5-1.2-0.6
		c-0.5-0.1-1-0.2-1.5-0.2c-0.4,0-0.8,0-1.2,0.1s-0.8,0.2-1.1,0.4c-0.3,0.2-0.6,0.5-0.8,0.8c-0.2,0.3-0.3,0.7-0.3,1.2
		c0,0.4,0.1,0.7,0.3,1c0.2,0.3,0.5,0.5,0.8,0.7c0.3,0.2,0.6,0.4,1,0.5s0.7,0.2,1,0.3l2.4,0.6c0.5,0.1,1,0.2,1.6,0.4
		c0.5,0.2,1,0.5,1.4,0.8s0.7,0.7,1,1.2c0.3,0.5,0.4,1.1,0.4,1.7c0,0.8-0.2,1.5-0.6,2.1s-0.8,1-1.4,1.4c-0.6,0.4-1.2,0.6-1.9,0.8
		c-0.7,0.2-1.4,0.2-2.1,0.2c-1.8,0-3.2-0.4-4.3-1.2c-1.1-0.8-1.7-2.2-1.9-4h1.8c0.1,1.2,0.5,2.2,1.3,2.8c0.8,0.6,1.8,0.9,3.1,0.9
		c0.4,0,0.9,0,1.4-0.1s0.9-0.3,1.3-0.5c0.4-0.2,0.7-0.5,1-0.9c0.3-0.4,0.4-0.8,0.4-1.3c0-0.4-0.1-0.8-0.3-1.1
		c-0.2-0.3-0.4-0.6-0.7-0.8c-0.3-0.2-0.7-0.4-1.1-0.5s-0.8-0.3-1.2-0.3l-2.3-0.5c-0.6-0.2-1.2-0.3-1.7-0.5s-0.9-0.5-1.3-0.8
		s-0.7-0.7-0.9-1.1c-0.2-0.4-0.3-1-0.3-1.6c0-0.8,0.2-1.4,0.5-1.9c0.3-0.5,0.8-1,1.3-1.3s1.1-0.6,1.8-0.7c0.7-0.2,1.3-0.2,2-0.2
		c0.8,0,1.5,0.1,2.1,0.3c0.6,0.2,1.2,0.5,1.7,0.9s0.9,0.9,1.2,1.5c0.3,0.6,0.5,1.3,0.5,2.1L171.2,21L171.2,21z"/>
</g>
</svg>
